<?xml version="1.0" encoding="UTF-8" standalone="no"?>
<!-- Created with Inkscape (http://www.inkscape.org/) -->

<svg
   width="80mm"
   height="135mm"
   viewBox="0 0 80 135"
   version="1.1"
   id="svg1"
   xml:space="preserve"
   inkscape:version="1.3.2 (091e20e, 2023-11-25, custom)"
   sodipodi:docname="icon.svg"
   inkscape:export-filename="icon.png"
   inkscape:export-xdpi="100"
   inkscape:export-ydpi="100"
   xmlns:inkscape="http://www.inkscape.org/namespaces/inkscape"
   xmlns:sodipodi="http://sodipodi.sourceforge.net/DTD/sodipodi-0.dtd"
   xmlns="http://www.w3.org/2000/svg"
   xmlns:svg="http://www.w3.org/2000/svg"><sodipodi:namedview
     id="namedview1"
     pagecolor="#ffffff"
     bordercolor="#666666"
     borderopacity="1.0"
     inkscape:showpageshadow="2"
     inkscape:pageopacity="0.0"
     inkscape:pagecheckerboard="0"
     inkscape:deskcolor="#d1d1d1"
     inkscape:document-units="mm"
     inkscape:zoom="0.7198092"
     inkscape:cx="46.540111"
     inkscape:cy="155.59679"
     inkscape:window-width="1920"
     inkscape:window-height="1012"
     inkscape:window-x="-8"
     inkscape:window-y="-8"
     inkscape:window-maximized="1"
     inkscape:current-layer="layer1" /><defs
     id="defs1" /><g
     inkscape:label="Layer 1"
     inkscape:groupmode="layer"
     id="layer1"
     transform="translate(-80.215008,-94.654567)"><path
       style="fill:#7d7d7d;fill-opacity:1;stroke:none;stroke-width:0.265;stroke-linecap:butt;stroke-linejoin:miter;stroke-dasharray:none;stroke-opacity:1"
       d="m 154.81712,163.18026 c -0.12995,-5.58815 -12.86575,-10.13665 -13.90541,-11.95605 -1.03965,-1.8194 -2.86014,-5.10638 -4.01696,-5.69852 -9.47483,-4.84988 -4.35306,-4.78892 -14.95678,-8.46681 -6.92926,-2.4034 -18.60081,-1.28023 -20.27336,1.16962 -5.267422,7.71542 -11.911465,14.28828 -11.911465,22.37492 -0.183787,5.05414 1.613316,22.52559 2.164677,28.95814 2.205446,10.38397 27.378658,20.95641 34.178778,37.03778 1.19462,-8.5461 -7.66747,-31.18971 -7.66747,-31.18971 -4.68657,-13.50835 -10.01371,-15.82119 -1.55949,-30.79984 5.51361,-7.53527 23.6522,-3.76875 23.6522,-3.76875 5.67011,1.69966 15.34388,4.5325 14.29528,2.33922 z"
       id="path2"
       sodipodi:nodetypes="cssssccccccc" /><path
       style="fill:#333333;stroke:none;stroke-width:0.264583px;stroke-linecap:butt;stroke-linejoin:miter;stroke-opacity:1"
       d="m 98.675592,142.64704 c 2.339238,-12.60584 -3.118967,-33.55065 -5.718112,-38.2074 -1.076733,-1.92914 3.378883,-6.497879 12.34596,-4.548524 9.51758,2.069044 17.0244,8.187324 21.05308,16.634544 4.02867,8.44721 12.37841,31.0435 12.37841,31.0435 0,0 -1.72193,1.25084 -3.13522,1.73818 -6.92488,2.38787 -8.02862,-2.19441 -11.92635,-5.681 -6.10199,-5.45835 -15.3809,-5.39784 -24.997768,-0.9793 z"
       id="path1"
       sodipodi:nodetypes="cssscssc" /><path
       id="path3"
       style="fill:#c0c0c0;fill-opacity:1;stroke:none;stroke-width:0.261202px;stroke-linecap:butt;stroke-linejoin:miter;stroke-opacity:1"
       d="m 115.08554,168.03784 c -0.0382,0.008 -0.0738,0.0102 -0.11214,0.0181 -8.53459,1.76068 -4.38855,16.26571 -2.50785,22.79034 1.54039,5.10112 3.13241,10.60266 4.14031,17.54415 l 0.0171,5.57382 c 4.01684,3.84346 7.51614,8.0052 9.47384,12.63489 1.19461,-8.54609 -7.66775,-31.18931 -7.66775,-31.18931 -4.30078,-12.39635 -9.10926,-15.39159 -3.34347,-27.37197 z" /><path
       id="path8"
       style="fill:#d7d7d7;fill-opacity:1;stroke:none;stroke-width:0.264583px;stroke-linecap:butt;stroke-linejoin:miter;stroke-opacity:1"
       d="m 89.832766,164.28509 c 0.333113,7.14738 1.628647,19.9507 2.085144,25.2765 0.323382,1.52259 1.150968,3.04966 2.33164,4.59713 5.85e-4,-10e-4 9.66e-4,-0.002 0.0016,-0.004 0,0 -1.282087,-11.94687 -1.930115,-17.45991 -0.41017,-3.48948 -1.286371,-7.90267 -2.480986,-12.40545 -0.0025,-0.002 -0.0047,-0.003 -0.0072,-0.005 z" /></g></svg>
