<?xml version="1.0" encoding="UTF-8" standalone="no"?>
<!-- Created with Inkscape (http://www.inkscape.org/) -->

<svg
   width="338.66666mm"
   height="169.33333mm"
   viewBox="0 0 338.66666 169.33333"
   version="1.1"
   id="svg1"
   xml:space="preserve"
   inkscape:version="1.3.2 (091e20e, 2023-11-25, custom)"
   sodipodi:docname="icon_wide.svg"
   inkscape:export-filename="icon_wide.png"
   inkscape:export-xdpi="250"
   inkscape:export-ydpi="250"
   xmlns:inkscape="http://www.inkscape.org/namespaces/inkscape"
   xmlns:sodipodi="http://sodipodi.sourceforge.net/DTD/sodipodi-0.dtd"
   xmlns="http://www.w3.org/2000/svg"
   xmlns:svg="http://www.w3.org/2000/svg"><sodipodi:namedview
     id="namedview1"
     pagecolor="#ffffff"
     bordercolor="#666666"
     borderopacity="1.0"
     inkscape:showpageshadow="2"
     inkscape:pageopacity="0.0"
     inkscape:pagecheckerboard="0"
     inkscape:deskcolor="#d1d1d1"
     inkscape:document-units="mm"
     inkscape:zoom="0.7198092"
     inkscape:cx="756.45046"
     inkscape:cy="418.16637"
     inkscape:window-width="1920"
     inkscape:window-height="1012"
     inkscape:window-x="-8"
     inkscape:window-y="-8"
     inkscape:window-maximized="1"
     inkscape:current-layer="layer1"
     showgrid="false" /><defs
     id="defs1" /><g
     inkscape:label="Layer 1"
     inkscape:groupmode="layer"
     id="layer1"
     transform="translate(67.470871,-79.972641)"><path
       id="path2"
       style="fill:#7d7d7d;fill-opacity:1;stroke:none;stroke-width:0.388155;stroke-linecap:butt;stroke-linejoin:miter;stroke-dasharray:none;stroke-opacity:1"
       d="m 89.398072,153.24613 c -7.927781,-0.0603 -15.392766,1.381 -16.96885,3.55979 -7.941833,10.97882 -17.959909,20.33176 -17.959909,31.83881 -0.247146,6.41456 1.768365,25.74872 2.821254,36.59352 h 34.831377 c -4.314943,-9.44366 -6.0086,-15.44103 3.231866,-30.89243 8.31299,-10.72246 35.66115,-5.36284 35.66115,-5.36284 8.54897,2.41857 23.1343,6.44913 21.5533,3.32816 -0.19593,-7.95178 -19.39831,-14.4239 -20.96583,-17.01285 -1.5675,-2.58896 -4.31207,-7.26601 -6.05624,-8.10861 -14.28542,-6.90124 -6.56312,-6.81504 -22.5506,-12.04858 -3.91777,-1.28248 -8.840842,-1.85877 -13.597518,-1.89497 z" /><path
       style="fill:#333333;stroke:none;stroke-width:0.387544px;stroke-linecap:butt;stroke-linejoin:miter;stroke-opacity:1"
       d="m 67.922317,163.09317 c 3.526944,-17.93776 -4.702563,-47.74164 -8.62138,-54.36806 -1.623427,-2.74511 5.09445,-9.246305 18.614366,-6.47243 14.34989,2.9442 25.668107,11.65034 31.742247,23.67049 6.07412,12.02015 18.66323,44.17404 18.66323,44.17404 0,0 -2.5962,1.77991 -4.72705,2.47338 -10.44081,3.39787 -12.10495,-3.12258 -17.98165,-8.0839 -9.20012,-7.76708 -23.190158,-7.68098 -37.689763,-1.39352 z"
       id="path1"
       sodipodi:nodetypes="cssscssc" /><path
       id="path3"
       style="fill:#c0c0c0;fill-opacity:1;stroke:none;stroke-width:0.382592px;stroke-linecap:butt;stroke-linejoin:miter;stroke-opacity:1"
       d="m 92.664227,199.22334 c -0.05759,0.0114 -0.11127,0.0145 -0.169076,0.0258 -10.383067,2.0216 -8.316911,15.84613 -5.642525,25.98916 h 5.27945 c -3.815495,-8.39058 -5.558876,-14.07016 0.532151,-26.0149 z" /><path
       id="path8"
       style="fill:#d7d7d7;fill-opacity:1;stroke:none;stroke-width:0.387544px;stroke-linecap:butt;stroke-linejoin:miter;stroke-opacity:1"
       d="m 54.590851,193.88256 -7.69e-4,7.4e-4 c 0.423822,8.58267 1.841414,22.54038 2.699701,31.35495 h 2.678684 c -0.562607,-4.84586 -1.188177,-10.17368 -1.626835,-13.69574 -0.618423,-4.96542 -1.939491,-11.24526 -3.740649,-17.65259 -0.003,-0.003 -0.0075,-0.004 -0.01055,-0.007 z" /></g></svg>
